<svg width="32" height="32" viewBox="0 0 36 36" xmlns="http://www.w3.org/2000/svg">
  <defs>
    <linearGradient id="backgroundGradient" x1="0%" y1="0%" x2="100%" y2="100%">
      <stop offset="0%" style="stop-color:rgb(16, 185, 129)" />
      <stop offset="50%" style="stop-color:rgb(5, 150, 105)" />
      <stop offset="100%" style="stop-color:rgb(20, 184, 166)" />
    </linearGradient>
  </defs>
  
  <circle cx="18" cy="18" r="18" fill="url(#backgroundGradient)" />
  
  <g transform="translate(6, 6)">
    <path fill="white" d="M4.5 3.75c5.25.75 9 5.25 9.75 9.75.75-4.5 4.5-9 9.75-9.75-.75 5.25-3.75 9-9.75 11.25 2.25 1.5 5.25 3.75 6 6-4.5-1.5-7.5-3.75-9-6-1.5 2.25-4.5 4.5-9 6 .75-2.25 3.75-4.5 6-6C8.25 12.75 5.25 9 4.5 3.75Z"></path>
  </g>
</svg>