<?xml version="1.0" encoding="utf-8"?>
<!-- Generator: Adobe Illustrator 26.0.1, SVG Export Plug-In . SVG Version: 6.00 Build 0)  -->
<svg version="1.1" xmlns="http://www.w3.org/2000/svg" xmlns:xlink="http://www.w3.org/1999/xlink" x="0px" y="0px"
	 viewBox="0 0 500 500" style="enable-background:new 0 0 500 500;" xml:space="preserve">
<style type="text/css">
	.st0{display:none;}
	.st1{display:inline;fill:#FFFFFF;}
	.st2{fill:#39B597;}
</style>
<g id="BACKGROUND" class="st0">
	<rect id="XMLID_00000079466777018383195710000017464465770155757704_" class="st1" width="500" height="500"/>
</g>
<g id="OBJECTS">
	<g>
		<g>
			<g>
				<g>
					<path class="st2" d="M95.79,383.87l12.72-30.17h4.03l12.77,30.17h-4.3l-3.36-8.08h-14.37l-3.17,8.08H95.79z M104.58,372.61
						h11.8l-5.37-13.23c-0.09-0.21-0.18-0.48-0.25-0.82c-0.08-0.34-0.16-0.74-0.25-1.2h-0.09c-0.08,0.42-0.16,0.8-0.24,1.14
						s-0.18,0.63-0.29,0.88L104.58,372.61z"/>
					<path class="st2" d="M129.69,383.87v-31.89h3.79v31.89H129.69z"/>
					<path class="st2" d="M141.16,383.87v-31.89h3.79v31.89H141.16z"/>
				</g>
			</g>
		</g>
		<g>
			<g>
				<g>
					<path d="M185.71,382.14c-1.83,0.8-3.61,1.38-5.35,1.75c-1.74,0.37-3.62,0.55-5.66,0.55c-5.71,0-10.14-1.57-13.31-4.72
						c-3.17-3.14-4.75-7.27-4.75-12.38c0-5.6,1.77-10.07,5.31-13.4s8.15-4.99,13.84-4.99c1.77,0,3.44,0.15,4.99,0.46
						c1.55,0.3,3.16,0.79,4.83,1.46l-1.63,3.3c-1.39-0.56-2.73-0.96-4.03-1.21c-1.3-0.25-2.7-0.37-4.21-0.37
						c-4.42,0-7.94,1.3-10.55,3.89s-3.91,6.13-3.91,10.62c0,4.2,1.25,7.53,3.75,10.01s5.82,3.71,9.94,3.71
						c1.53,0,3.02-0.15,4.49-0.46c1.47-0.3,2.96-0.8,4.49-1.48L185.71,382.14z"/>
					<path d="M211.01,383.87h-4.32v-3.83h-0.11c-0.93,1.47-2.08,2.57-3.44,3.3c-1.36,0.73-2.95,1.1-4.75,1.1
						c-2.53,0-4.57-0.67-6.14-2.01s-2.34-3.12-2.34-5.34c0-2.09,0.79-3.82,2.37-5.2s3.82-2.25,6.71-2.63l7.69-0.93v-0.55
						c0-2.06-0.53-3.52-1.58-4.39c-1.05-0.87-2.46-1.3-4.21-1.3c-1.4,0-2.76,0.24-4.05,0.72c-1.3,0.48-2.52,1.21-3.66,2.2
						l-2.53-2.37c1.51-1.33,3.12-2.3,4.82-2.92c1.7-0.62,3.6-0.93,5.69-0.93c3.27,0,5.72,0.76,7.37,2.29s2.48,3.81,2.48,6.86V383.87
						z M206.69,373.9v-2.44l-6.5,0.81c-1.98,0.26-3.48,0.71-4.48,1.37c-1,0.65-1.5,1.68-1.5,3.09c0,1.47,0.47,2.59,1.41,3.36
						c0.94,0.77,2.08,1.16,3.44,1.16c2.33,0,4.19-0.69,5.57-2.08S206.69,376.03,206.69,373.9z"/>
					<path d="M241.17,383.87h-4.32v-3.88h-0.11c-0.89,1.48-2.04,2.6-3.42,3.34s-3.02,1.11-4.9,1.11c-3.21,0-5.62-0.87-7.23-2.61
						s-2.41-4.35-2.41-7.83v-14.65h4.29v14.03c0,2.59,0.54,4.53,1.63,5.82s2.72,1.94,4.9,1.94c2.11,0,3.84-0.71,5.2-2.12
						s2.04-3.26,2.04-5.54v-14.13h4.32V383.87z"/>
					<path d="M272.9,382.55c0,4.29-1.21,7.51-3.62,9.65c-2.41,2.14-5.72,3.21-9.91,3.21c-1.84,0-3.56-0.16-5.15-0.48
						c-1.59-0.32-3.23-0.84-4.91-1.56l1.58-3.02c1.4,0.59,2.78,1.02,4.12,1.29c1.34,0.27,2.78,0.41,4.31,0.41
						c2.88,0,5.14-0.74,6.79-2.23c1.65-1.48,2.48-3.74,2.48-6.75v-3.33h-0.11c-1.02,1.56-2.3,2.74-3.84,3.52
						c-1.54,0.78-3.35,1.17-5.42,1.17c-3.35,0-6.05-1.09-8.1-3.27c-2.04-2.18-3.07-5.1-3.07-8.78c0-4.02,1.13-7.3,3.38-9.83
						c2.25-2.53,5.24-3.8,8.97-3.8c1.83,0,3.41,0.33,4.75,0.99c1.34,0.66,2.45,1.66,3.33,2.98h0.11v-3.4h4.32V382.55z
						 M268.58,372.78v-3.62c0-1.95-0.72-3.62-2.17-5s-3.25-2.08-5.41-2.08c-2.65,0-4.74,0.83-6.25,2.49s-2.28,4.18-2.28,7.57
						c0,2.91,0.7,5.13,2.11,6.68c1.4,1.55,3.34,2.32,5.82,2.32c2.42,0,4.39-0.78,5.91-2.35S268.58,375.22,268.58,372.78z"/>
					<path d="M304.02,383.87h-4.32v-14.13c0-2.55-0.52-4.47-1.57-5.75c-1.04-1.28-2.61-1.92-4.7-1.92c-2.11,0-3.88,0.74-5.32,2.21
						c-1.44,1.48-2.16,3.37-2.16,5.69v13.89h-4.32v-36.3h4.32v15.85h0.1c1.04-1.55,2.29-2.71,3.77-3.48
						c1.48-0.77,3.17-1.16,5.08-1.16c3.04,0,5.31,0.83,6.83,2.49c1.52,1.66,2.28,4.16,2.28,7.5V383.87z"/>
					<path d="M325.01,383.58c-0.74,0.27-1.46,0.47-2.17,0.61s-1.51,0.2-2.41,0.2c-2.14,0-3.82-0.57-5.04-1.71
						c-1.22-1.14-1.83-2.83-1.83-5.06V362.7h-4.63v-3.35h4.63v-5.99l4.32-1.27v7.25h6.79v3.35h-6.79v14.46
						c0,1.4,0.28,2.42,0.83,3.04c0.55,0.62,1.38,0.93,2.49,0.93c0.53,0,1.04-0.06,1.53-0.17c0.49-0.11,0.9-0.24,1.24-0.38
						L325.01,383.58z"/>
				</g>
			</g>
		</g>
		<g>
			<g>
				<path class="st2" d="M362.28,371.64c0,4.25-1.05,7.43-3.15,9.55c-2.1,2.12-5.25,3.18-9.46,3.18c-4.03,0-7.04-1.02-9.06-3.05
					c-2.01-2.03-3.02-5.09-3.02-9.17V353.7h3.89v18.22c0,3.09,0.72,5.4,2.15,6.95s3.59,2.32,6.46,2.32c2.78,0,4.85-0.75,6.24-2.24
					c1.38-1.49,2.07-3.73,2.07-6.72V353.7h3.89V371.64z"/>
				<path class="st2" d="M374.45,372.8v11.07h-3.89V353.7h9.12c3.55,0,6.3,0.8,8.25,2.4s2.93,3.86,2.93,6.77
					c0,2.9-1.08,5.28-3.25,7.14c-2.17,1.86-5.09,2.79-8.78,2.79H374.45z M374.45,356.9v12.71h4.07c2.68,0,4.73-0.57,6.14-1.71
					c1.41-1.14,2.12-2.76,2.12-4.85c0-2.05-0.65-3.58-1.94-4.61c-1.29-1.02-3.24-1.54-5.83-1.54H374.45z"/>
				<path class="st2" d="M399.48,384.24c-0.76,0-1.39-0.23-1.91-0.69c-0.52-0.46-0.78-1.03-0.78-1.7s0.26-1.24,0.78-1.7
					c0.52-0.46,1.15-0.69,1.91-0.69s1.39,0.23,1.91,0.69c0.52,0.46,0.77,1.03,0.77,1.7s-0.26,1.24-0.77,1.7
					C400.87,384.01,400.23,384.24,399.48,384.24z M401.4,353.7l-0.42,21.67h-3.12l-0.42-21.67H401.4z"/>
			</g>
		</g>
	</g>
	<g>
		<path id="XMLID_1013_" class="st2" d="M324.75,234.9L324.75,234.9c-3.03-9.77-13.51-15.27-23.37-12.27
			c-8.18,2.49-13.39,10.06-13.2,18.15L257,250.26c-1.71-2.64-4.08-4.83-6.95-6.34c-4.41-2.32-9.47-2.79-14.25-1.34
			c-4.77,1.45-8.69,4.66-11.03,9.03c-1.53,2.85-2.25,5.97-2.17,9.11l-4.98,1.52l-1.29-27.71l101.65-30.92
			c2.29-0.7,3.77-2.89,3.56-5.25l-7.65-84.3c-0.14-1.51-0.95-2.87-2.22-3.72c-1.27-0.84-2.85-1.08-4.31-0.63l-147.98,45.01
			l-8.26-10.83c-1.28-1.68-3.5-2.39-5.53-1.77l-39.8,12.1c-2.68,0.81-4.18,3.62-3.36,6.27c0.82,2.65,3.66,4.14,6.33,3.33l36.4-11.07
			l60.94,79.9l1.69,36.51c0.07,1.55,0.86,2.98,2.14,3.87c0.98,0.69,2.17,1,3.34,0.9c0.36-0.03,0.71-0.1,1.06-0.2l11.23-3.42
			c3.72,5.71,10.39,9.01,17.28,8.43c1.31-0.11,2.62-0.36,3.92-0.75c8.18-2.49,13.39-10.06,13.2-18.15l31.18-9.48
			c3.72,5.71,10.39,9.01,17.28,8.43c1.3-0.11,2.62-0.36,3.92-0.75C322.21,255.05,327.77,244.67,324.75,234.9z M214.72,148.4
			L236,174.65l-21.79,6.63l-21.28-26.26L214.72,148.4z M246.94,138.6l21.28,26.26l-21.79,6.63l-21.28-26.26L246.94,138.6z
			 M279.15,128.8l21.28,26.26l-21.79,6.63l-21.28-26.26L279.15,128.8z M274.64,206.29l-21.38-26.39l21.79-6.63l21.38,26.39
			L274.64,206.29z M242.83,183.08l21.38,26.39l-21.79,6.63l-21.38-26.39L242.83,183.08z M232,219.26l-19.01,5.78l-20.36-26.7
			l17.99-5.47L232,219.26z M306.85,196.5l-21.38-26.39l21.79-6.63l1.05,1.3l2.76,30.43L306.85,196.5z M306.67,146.72l-17.09-21.09
			l14.77-4.49L306.67,146.72z M182.51,158.19l21.28,26.26l-17.66,5.37l-20.26-26.57L182.51,158.19z M243.8,268.4
			c-2.19,0.66-4.51,0.45-6.53-0.61c-1.84-0.96-3.22-2.52-3.96-4.42c-0.04-0.2-0.08-0.4-0.14-0.61c-0.06-0.2-0.14-0.39-0.22-0.58
			c-0.46-1.99-0.2-4.05,0.78-5.86c1.07-2,2.87-3.47,5.05-4.14c0.6-0.18,1.2-0.29,1.8-0.34c3.93-0.33,7.7,2.08,8.91,5.97
			C250.86,262.27,248.31,267.03,243.8,268.4z M309.38,248.45c-4.52,1.37-9.32-1.15-10.7-5.62c-1.39-4.47,1.16-9.23,5.67-10.6
			c0.6-0.18,1.2-0.29,1.8-0.34c3.93-0.33,7.7,2.08,8.91,5.97v0C316.44,242.32,313.9,247.08,309.38,248.45z"/>
		<path class="st2" d="M347.99,283.2c25.12-25.25,40.65-59.88,40.65-98.05c0-77.06-63.28-139.76-141.07-139.76
			c-38.76,0-73.92,15.57-99.44,40.73c-0.17,0.14-0.36,0.26-0.52,0.43c-0.18,0.18-0.31,0.37-0.46,0.56
			c-25.12,25.25-40.65,59.88-40.65,98.05c0,77.06,63.28,139.76,141.07,139.76c38.76,0,73.92-15.57,99.44-40.73
			c0.17-0.14,0.36-0.26,0.52-0.43C347.7,283.59,347.84,283.39,347.99,283.2z M374.58,185.16c0,32.1-12.2,61.42-32.23,83.67
			L162.7,91.62c22.51-20.07,52.27-32.3,84.87-32.3C317.6,59.32,374.58,115.77,374.58,185.16z M120.55,185.16
			c0-32.1,12.2-61.42,32.23-83.67l179.65,177.21c-22.51,20.07-52.27,32.3-84.87,32.3C177.53,310.99,120.55,254.54,120.55,185.16z"/>
	</g>
</g>
</svg>
